<svg xmlns="http://www.w3.org/2000/svg" viewBox="0 0 256 256">
  <rect width="256" height="256" fill="#000000"/>
  <rect x="32" y="32" width="192" height="144" fill="#001a00" stroke="#00FF00" stroke-width="4"/>
  <line x1="32" y1="48" x2="224" y2="48" stroke="#00FF00" stroke-width="1" opacity="0.3"/>
  <line x1="32" y1="64" x2="224" y2="64" stroke="#00FF00" stroke-width="1" opacity="0.3"/>
  <line x1="32" y1="80" x2="224" y2="80" stroke="#00FF00" stroke-width="1" opacity="0.3"/>
  <line x1="32" y1="96" x2="224" y2="96" stroke="#00FF00" stroke-width="1" opacity="0.3"/>
  <line x1="32" y1="112" x2="224" y2="112" stroke="#00FF00" stroke-width="1" opacity="0.3"/>
  <line x1="32" y1="128" x2="224" y2="128" stroke="#00FF00" stroke-width="1" opacity="0.3"/>
  <line x1="32" y1="144" x2="224" y2="144" stroke="#00FF00" stroke-width="1" opacity="0.3"/>
  <line x1="32" y1="160" x2="224" y2="160" stroke="#00FF00" stroke-width="1" opacity="0.3"/>
  <line x1="48" y1="32" x2="48" y2="176" stroke="#00FF00" stroke-width="1" opacity="0.3"/>
  <line x1="80" y1="32" x2="80" y2="176" stroke="#00FF00" stroke-width="1" opacity="0.3"/>
  <line x1="112" y1="32" x2="112" y2="176" stroke="#00FF00" stroke-width="1" opacity="0.3"/>
  <line x1="144" y1="32" x2="144" y2="176" stroke="#00FF00" stroke-width="1" opacity="0.3"/>
  <line x1="176" y1="32" x2="176" y2="176" stroke="#00FF00" stroke-width="1" opacity="0.3"/>
  <line x1="208" y1="32" x2="208" y2="176" stroke="#00FF00" stroke-width="1" opacity="0.3"/>
  <text x="128" y="120" font-family="monospace" font-size="48" font-weight="bold" fill="#00FF00" text-anchor="middle" dominant-baseline="middle">TM</text>
  <rect x="96" y="184" width="64" height="32" fill="#00FF00"/>
  <rect x="80" y="216" width="96" height="8" fill="#00FF00"/>
</svg>